<svg viewBox="0 0 24 24" fill="none" xmlns="http://www.w3.org/2000/svg">
  <path fill="currentColor" d="M8.14286 2C8.85402 2 9.42857 2.55859 9.42857 3.25V4.5H14.5714V3.25C14.5714 2.55859 15.146 2 15.8571 2C16.5683 2 17.1429 2.55859 17.1429 3.25V4.5H19.0714C20.1362 4.5 21 5.33984 21 6.375V8.25H3V6.375C3 5.33984 3.86384 4.5 4.92857 4.5H6.85714V3.25C6.85714 2.55859 7.4317 2 8.14286 2ZM3 9.5H21V20.125C21 21.1602 20.1362 22 19.0714 22H4.92857C3.86384 22 3 21.1602 3 20.125V9.5ZM16.2187 13.9141C16.5964 13.5469 16.5964 12.9531 16.2187 12.5898C15.8411 12.2266 15.2304 12.2227 14.8567 12.5898L11.0397 16.3008L9.15134 14.4648C8.77366 14.0977 8.16295 14.0977 7.78929 14.4648C7.41562 14.832 7.41161 15.4258 7.78929 15.7891L10.3607 18.2891C10.7384 18.6562 11.3491 18.6562 11.7228 18.2891L16.2187 13.9141Z"/>
</svg>
