<svg viewBox="0 0 24 24" fill="none" xmlns="http://www.w3.org/2000/svg">
<path d="M22.4194 7.07999C23.8384 5.43238 24.3141 4.09438 23.7973 3.19883C23.2578 2.26874 21.771 2.02424 19.4882 2.49196C19.6477 2.68194 19.7939 2.88791 19.9267 3.10715C21.6527 2.79622 22.8605 2.95171 23.202 3.54294C23.5528 4.14749 23.0745 5.27029 21.8892 6.64152C21.7005 6.50732 21.5039 6.38507 21.2966 6.27744C21.1398 6.19508 20.9777 6.12065 20.813 6.05554C20.5844 5.96652 20.3466 5.89344 20.1034 5.83762C20.0237 5.11349 19.839 4.45176 19.564 3.87908C19.3022 3.33299 18.9581 2.86658 18.5435 2.50119C18.2751 2.26335 17.9761 2.06802 17.6506 1.92055C16.116 1.22961 14.1694 1.68801 12.1338 3.21074C13.3005 3.98802 14.5348 4.41454 15.8941 4.51288L15.8449 5.19716C14.2106 5.08026 12.745 4.52882 11.3645 3.50971C11.3605 3.50704 11.3565 3.50441 11.3526 3.50043C11.3486 3.49776 11.3446 3.49513 11.3406 3.49246C9.84047 2.28332 8.355 1.63091 7.04489 1.60701C6.04969 1.58976 5.16877 1.92721 4.47248 2.59157L6.35527 3.53896C6.47086 3.59741 6.54394 3.71699 6.54394 3.8459C6.54394 3.97611 6.47086 4.09438 6.35527 4.15283L4.14028 5.26761L3.0255 7.4826C3.0202 7.49324 3.01486 7.50252 3.00825 7.51185C3.08531 8.24662 3.27534 9.14882 3.69122 10.144C3.9397 10.7406 4.27186 11.3704 4.70634 12.0162C4.84584 12.2234 4.99734 12.432 5.15944 12.642C5.20463 12.6991 5.22984 12.7695 5.2312 12.8413C5.26177 13.8711 5.31623 14.8251 5.39067 15.7007C6.36727 15.4482 7.50731 15.0509 8.78156 14.5195C11.0311 13.5827 13.149 12.452 14.0459 11.9311C14.0924 11.9046 14.1349 11.8793 14.1748 11.8554C14.2306 12.0853 14.3024 12.3085 14.3901 12.525C13.3311 13.1402 11.2104 14.251 9.04598 15.1532C7.6867 15.7192 6.48291 16.1338 5.45447 16.3929C5.2193 16.4527 4.99472 16.5032 4.77947 16.5457C3.79889 16.7411 3.01228 16.769 2.44228 16.6228C2.02505 16.5165 1.7407 16.3225 1.57195 16.0302C1.1348 15.2755 1.99448 13.7156 3.82547 11.9112C3.70055 11.7066 3.58495 11.5006 3.4747 11.292C1.22517 13.4698 0.337594 15.2689 0.976734 16.3731C1.23848 16.8275 1.67433 17.1358 2.27222 17.2885C2.5672 17.3643 2.90072 17.3988 3.26213 17.3988C3.74709 17.3988 4.28259 17.3364 4.85391 17.2274C5.07314 17.1836 5.29903 17.1344 5.52891 17.0773C5.54616 17.2247 5.56477 17.3696 5.58337 17.5104C5.72555 18.5455 6.3248 22.7057 7.51931 22.8691C7.83952 22.9116 9.01542 22.6047 10.7507 16.8819C10.8584 16.5245 11.1812 16.284 11.556 16.284C11.9307 16.284 12.2535 16.5245 12.3612 16.8832C14.0872 22.5781 15.2631 22.9063 15.5833 22.8704C16.3792 22.7814 17.3452 20.4615 17.7385 15.4855C17.959 15.5439 18.1863 15.5864 18.4175 15.6144C18.6101 15.637 18.8055 15.6489 19.0035 15.6489C21.7419 15.6489 23.9689 13.4207 23.9689 10.6822C23.9689 9.51426 23.5636 8.43801 22.886 7.58896C22.7423 7.40816 22.5855 7.2381 22.4194 7.07999ZM19.0033 14.9619C17.6559 14.9619 16.4508 14.3361 15.6655 13.3608C15.2337 12.824 14.9281 12.1809 14.7966 11.478C14.7474 11.2202 14.7208 10.9545 14.7208 10.6821C14.7208 8.32232 16.6421 6.401 19.0033 6.401C19.653 6.401 20.2682 6.54716 20.8209 6.80624C21.4547 7.10521 22.0035 7.55432 22.4207 8.10838C22.9615 8.8259 23.2817 9.71746 23.2817 10.6821C23.2817 13.0419 21.363 14.9619 19.0033 14.9619ZM21.7643 17.7562L22.8725 18.3528L21.7657 18.948C21.6753 18.9958 21.6036 19.073 21.5584 19.1686L21.0004 20.3525L20.4423 19.1686C20.3971 19.0729 20.3241 18.9958 20.235 18.948L19.1282 18.3528L20.2364 17.7562C20.3241 17.7084 20.3971 17.6313 20.4423 17.5356L21.0004 16.3504L21.5584 17.5356C21.6036 17.6313 21.6753 17.7083 21.7643 17.7562ZM1.70606 4.70558L0 3.8459L1.70606 2.98621C1.77248 2.95297 1.82564 2.89986 1.85887 2.83476L2.71856 1.12738L3.57825 2.83476C3.61148 2.89986 3.66459 2.95302 3.73106 2.98621L5.43712 3.8459L3.73106 4.70558C3.66464 4.73882 3.61148 4.79193 3.57825 4.8584L2.71856 6.56446L1.85887 4.8584C1.82564 4.79193 1.77248 4.73877 1.70606 4.70558ZM22.0832 9.89155V11.4727C22.0832 11.6627 21.9291 11.8169 21.7391 11.8169H20.1367V13.4193C20.1367 13.6093 19.9825 13.7621 19.7939 13.7621H18.2114C18.0227 13.7621 17.8686 13.6093 17.8686 13.4193V11.8169H16.2648C16.0748 11.8169 15.9207 11.6628 15.9207 11.4727V9.89155C15.9207 9.70157 16.0748 9.54876 16.2648 9.54876H17.8686V7.94366C17.8686 7.75499 18.0227 7.60086 18.2114 7.60086H19.7939C19.9825 7.60086 20.1367 7.75499 20.1367 7.94366V9.54876H21.7391C21.9291 9.54871 22.0832 9.70152 22.0832 9.89155Z" fill="url(#paint0_linear_10_11)"/>
<defs>
<linearGradient id="paint0_linear_10_11" x1="12" y1="1.12733" x2="12" y2="22.8726" gradientUnits="userSpaceOnUse">
<stop stop-color="#415BE7"/>
<stop offset="1" stop-color="#61B0FF"/>
</linearGradient>
</defs>
</svg>
